<?xml version="1.0" encoding="UTF-8"?>
<svg width="342px" height="155px" viewBox="0 0 342 155" version="1.1" xmlns="http://www.w3.org/2000/svg" xmlns:xlink="http://www.w3.org/1999/xlink">
    <!-- Generator: Sketch 54.1 (76490) - https://sketchapp.com -->
    <title>cf-logo-v-cmyk-rev</title>
    <desc>Created with Sketch.</desc>
    <g id="Page-1" stroke="none" stroke-width="1" fill="none" fill-rule="evenodd">
        <g id="Artboard-Copy" transform="translate(-515.000000, -115.000000)" fill-rule="nonzero">
            <g id="cf-logo-v-cmyk-rev" transform="translate(515.000000, 115.000000)">
                <path d="M313.5,92.4 L272.8,67.7 C272.2,67.6 268.4,68 266.4,67 C265,66.3 263.9,65.1 263.2,63 C260,63 87.7,63 87.7,63 L87.7,154.8 L313.5,154.8 L313.5,92.4 Z" id="flare" fill="#FFFFFF"></path>
                <path d="M271.2,67.8 C270.4,67.8 269.7,68.4 269.4,69.2 L264.6,85.9 C262.5,93.1 263.3,99.7 266.8,104.6 C270,109.1 275.4,111.7 281.9,112 L308.1,113.6 C308.9,113.6 309.6,114 310,114.6 C310.4,115.2 310.5,116.1 310.3,116.8 C309.9,118 308.7,118.9 307.4,119 L280.1,120.6 C265.3,121.3 249.4,133.2 243.8,147.8 L241.8,152.9 C241.4,153.9 242.1,154.9 243.2,154.9 L337,154.9 C338.1,154.9 339.1,154.2 339.4,153.1 C341,147.3 341.9,141.2 341.9,134.9 C341.9,97.9 311.7,67.7 274.6,67.7 C273.5,67.7 272.3,67.7 271.2,67.8 Z" id="right-cloud" fill="#FBAE40"></path>
                <path d="M235.4,146.6 C237.5,139.4 236.7,132.8 233.2,127.9 C230,123.4 224.6,120.8 218.1,120.5 L95,118.9 C94.2,118.9 93.5,118.5 93.1,117.9 C92.7,117.3 92.6,116.5 92.8,115.7 C93.2,114.5 94.4,113.6 95.7,113.5 L219.9,111.9 C234.6,111.2 250.6,99.3 256.2,84.7 L263.3,66.2 C263.6,65.4 263.7,64.6 263.5,63.8 C255.5,27.6 223.2,0.6 184.6,0.6 C149,0.6 118.8,23.6 108,55.5 C101,50.3 92.1,47.5 82.5,48.4 C65.4,50.1 51.7,63.8 50,80.9 C49.6,85.3 49.9,89.6 50.9,93.6 C23,94.4 0.7,117.2 0.7,145.3 C0.7,147.8 0.9,150.3 1.2,152.8 C1.4,154 2.4,154.9 3.6,154.9 L230.8,154.9 C232.1,154.9 233.3,154 233.7,152.7 L235.4,146.6 Z" id="left-cloud" fill="#F58220"></path>
            </g>
        </g>
    </g>
</svg>