<svg xmlns="http://www.w3.org/2000/svg" viewBox="0 0 1000 386"><title>circles</title><circle cx="67" cy="262.5" r="35.5" style="opacity:0.5"/><circle cx="674.5" cy="35" r="15" style="opacity:0.15"/><path d="M332.86,239.9a21.72,21.72,0,0,0-7-2.73,43.22,43.22,0,0,0-9.57-1,38.34,38.34,0,0,0-13.64,2.25,13.85,13.85,0,0,0-4.34,2.57,6,6,0,0,0-1.29,1.66,4.11,4.11,0,0,0,0,3.89,7.55,7.55,0,0,0,2.67,2.73,22,22,0,0,0,7,2.74,44,44,0,0,0,9.57,1,38.17,38.17,0,0,0,13.65-2.25,13.78,13.78,0,0,0,4.33-2.56,6.15,6.15,0,0,0,1.29-1.67,4.11,4.11,0,0,0,0-3.89A7.55,7.55,0,0,0,332.86,239.9Zm.95,5.73a5.75,5.75,0,0,1-2,2,20.16,20.16,0,0,1-6.4,2.46,41.6,41.6,0,0,1-9.14,1h0a36.35,36.35,0,0,1-12.91-2.12,12,12,0,0,1-3.72-2.17,4.33,4.33,0,0,1-.89-1.14,2.36,2.36,0,0,1-.28-1,2.4,2.4,0,0,1,.28-1.06,5.61,5.61,0,0,1,2-2,20.22,20.22,0,0,1,6.41-2.47,41.61,41.61,0,0,1,9.13-1h0a36.32,36.32,0,0,1,12.91,2.11,12,12,0,0,1,3.72,2.17,4.56,4.56,0,0,1,.9,1.14,2.25,2.25,0,0,1,.27,1.06A2.22,2.22,0,0,1,333.81,245.63Z" style="opacity:0.15"/><path d="M979.6,9.37a5.89,5.89,0,0,0-2.08-2.14,16.75,16.75,0,0,0-5.33-2.07A32.44,32.44,0,0,0,965,4.4a28.86,28.86,0,0,0-10.27,1.69,10.56,10.56,0,0,0-3.31,2,4.89,4.89,0,0,0-1,1.31A3.43,3.43,0,0,0,950,11a3.49,3.49,0,0,0,.4,1.58,6,6,0,0,0,2.08,2.14,16.75,16.75,0,0,0,5.33,2.07,32.44,32.44,0,0,0,7.19.76,28.67,28.67,0,0,0,10.27-1.7,10.26,10.26,0,0,0,3.31-2,5,5,0,0,0,1-1.31A3.49,3.49,0,0,0,980,11,3.43,3.43,0,0,0,979.6,9.37Zm-1.77,2.24a4,4,0,0,1-1.4,1.38,15,15,0,0,1-4.68,1.8,30.74,30.74,0,0,1-6.75.71h0a26.65,26.65,0,0,1-9.51-1.56,8.54,8.54,0,0,1-2.69-1.56,3,3,0,0,1-.61-.77,1.37,1.37,0,0,1,0-1.32,4,4,0,0,1,1.4-1.38,14.6,14.6,0,0,1,4.68-1.8A30.74,30.74,0,0,1,965,6.4h0A26.9,26.9,0,0,1,974.53,8a8.54,8.54,0,0,1,2.69,1.57,3.24,3.24,0,0,1,.61.77,1.37,1.37,0,0,1,0,1.32Z" style="opacity:0.15"/><path d="M984.73,34A60,60,0,1,0,999.5,152.16V35.84A59.94,59.94,0,0,0,984.73,34Z" style="opacity:0.5"/><path d="M919.87,278.94c-2.08-4-5.58-7.36-10.06-10.29-6.75-4.39-15.82-7.86-26.5-10.3a163.62,163.62,0,0,0-36-3.81c-19.95,0-38,3.18-51.41,8.48-6.7,2.66-12.25,5.85-16.32,9.65a23.59,23.59,0,0,0-4.88,6.27,15.54,15.54,0,0,0,0,14.67c2.08,4,5.58,7.35,10.07,10.28,6.74,4.39,15.81,7.86,26.49,10.3a164.18,164.18,0,0,0,36,3.81c19.94,0,38-3.18,51.4-8.48,6.7-2.66,12.25-5.85,16.32-9.65a23.55,23.55,0,0,0,4.88-6.26,15.54,15.54,0,0,0,0-14.67Zm-6.51,11.31c-1.23,2.4-3.77,5-7.56,7.51-5.67,3.71-14,7-24.11,9.29a156.8,156.8,0,0,1-34.42,3.63h-.08c-19.12,0-36.42-3.11-48.63-8-6.11-2.41-10.92-5.27-14-8.18a16.44,16.44,0,0,1-3.38-4.28,8.2,8.2,0,0,1,0-8c1.23-2.41,3.77-5,7.56-7.51,5.67-3.71,14-7,24.12-9.29a156.73,156.73,0,0,1,34.42-3.63h.07c19.12,0,36.42,3.11,48.63,8,6.11,2.42,10.92,5.28,14,8.2a16,16,0,0,1,3.38,4.27,8.2,8.2,0,0,1,0,8Z" style="opacity:0.15"/><path d="M888.44,312.9a158.32,158.32,0,0,1-41.17,5.1,164.18,164.18,0,0,1-36-3.81c-10.68-2.44-19.75-5.91-26.49-10.3-4.49-2.93-8-6.3-10.07-10.28a15.54,15.54,0,0,1,0-14.67,23.59,23.59,0,0,1,4.88-6.27c4.07-3.8,9.62-7,16.32-9.65a98,98,0,0,1,9.55-3.19A305,305,0,0,0,684.5,235c-112.43,0-210.68,60.65-263.87,151H948.37A307.26,307.26,0,0,0,888.44,312.9Z"/><path d="M812.85,265.49c-10.07,2.29-18.45,5.58-24.12,9.29-3.79,2.47-6.33,5.1-7.56,7.51a8.2,8.2,0,0,0,0,8,16.44,16.44,0,0,0,3.38,4.28c3.09,2.91,7.9,5.77,14,8.18,12.21,4.86,29.51,8,48.63,8h.08a156.8,156.8,0,0,0,34.42-3.63h0a306.69,306.69,0,0,0-65.43-42.28C815.12,265,814,265.23,812.85,265.49Z"/></svg>