<svg xmlns="http://www.w3.org/2000/svg" viewBox="0 0 1000 236"><title>-</title><path d="M-.61,236s123.67-77.07,311.18-77.07S853.69,236,853.69,236Z"/><path d="M379.69,236s148.41-27.17,273.85-80.09S877,87.31,931.87,85.35s68.13.13,68.13.13V236Z" style="opacity:0.5"/><rect x="896.48" y="182.13" width="7.54" height="53.87"/><rect x="808.85" y="179.21" width="6.39" height="56.79"/><rect x="731.8" y="181.27" width="5.32" height="54.73"/><path d="M936.47,143.49c0,33.83-16.22,44.25-36.23,44.25S864,177.32,864,143.49,900.36-.11,900.24-.11,936.47,109.65,936.47,143.49Z"/><path d="M842.75,150.22c0,28.69-13.75,37.52-30.71,37.52s-30.71-8.83-30.71-37.52S812.14,28.48,812,28.48,842.75,121.53,842.75,150.22Z"/><path d="M760.06,156.47c0,23.91-11.46,31.27-25.59,31.27s-25.6-7.36-25.6-31.27S734.55,55,734.47,55,760.06,132.57,760.06,156.47Z"/></svg>