<svg xmlns="http://www.w3.org/2000/svg" viewBox="0 0 1000 283"><title>lotus</title><path d="M99.72,283.38s55.54-90,142.11-92.3,200.91,42,223,53.28,9,39.77,9,39.77Z"/><g style="opacity:0.5"><path d="M864.49,124.53a6.45,6.45,0,0,0,0-.76c0-16.14-60-29.23-133.93-29.23s-133.94,13.09-133.94,29.23S656.63,153,730.6,153c25.1,0,79.48-2.36,107-13.37l-46.08-14.44Z"/></g><path d="M704.77,11.48s-27.9,33.66-16.48,63.4,42.68,43,42.68,43Z" style="opacity:0.8"/><path d="M626.08,30.27S621.71,82,653,103.18s70.71,13,70.71,13Z"/><path d="M666.76,11.77s-19.84,43.45.68,71.56,57.27,33.22,57.27,33.22Z" style="opacity:0.7000000000000001"/><path d="M821.31,30.27s4.37,51.69-26.9,72.91-70.71,13-70.71,13Z"/><path d="M780.63,11.77s19.84,43.45-.68,71.56-57.27,33.22-57.27,33.22Z" style="opacity:0.7000000000000001"/><path d="M722.34,8.66S695.4,24.53,697.85,53.1c1.36,15.88,24.49,64.53,24.49,64.53S745.6,83.07,748.05,53.8,722.34,8.66,722.34,8.66Z"/><path d="M742.24,11.48s27.9,33.66,16.47,63.4-42.67,43-42.67,43Z" style="opacity:0.8"/><path d="M639.79,116.36s35.05,20.56,58.34,15.15,28.14-24.94,28.14-24.94Z" style="opacity:0.7000000000000001"/><path d="M805.27,116.36s-35,20.56-58.35,15.15-28.13-24.94-28.13-24.94Z" style="opacity:0.7000000000000001"/><path d="M900,217.62s18.7-25.84,36.61-39.49S1000,162.47,1000,162.47v97.06S909,240.36,900,217.62Z" style="opacity:0.8"/><g style="opacity:0.15"><path d="M987.08,16.06c-33.64,0-60.92,6-60.92,13.29,0,.12,0,.24,0,.35l33.19.3-21,6.57c12.52,5,37.25,6.08,48.67,6.08,4.44,0,8.75-.11,12.92-.3v-26Q993.75,16.06,987.08,16.06Z"/></g></svg>